<svg width="8" height="12" viewBox="0 0 8 12" fill="none" xmlns="http://www.w3.org/2000/svg">
<path fill-rule="evenodd" clip-rule="evenodd" d="M0.387101 4.7903L0.292893 4.70711C-0.0675907 4.34662 -0.0953203 3.77939 0.209705 3.3871L0.292893 3.29289L3.29289 0.292893L3.33685 0.251496L3.40469 0.196335L3.51594 0.124671L3.62866 0.0712255L3.73401 0.0358451L3.8819 0.00690716L4 0L4.07524 0.00278786L4.20073 0.0202401L4.31214 0.0497381L4.42322 0.0936734L4.52071 0.145995L4.62545 0.219689L4.70711 0.292893L7.70711 3.29289C8.09763 3.68342 8.09763 4.31658 7.70711 4.70711C7.34662 5.06759 6.77939 5.09532 6.3871 4.7903L6.29289 4.70711L5 3.415V11C5 11.5523 4.55228 12 4 12C3.44772 12 3 11.5523 3 11V3.415L1.70711 4.70711C1.34662 5.06759 0.779392 5.09532 0.387101 4.7903L0.292893 4.70711L0.387101 4.7903Z" fill="white"/>
</svg>
