<svg width="12" height="12" viewBox="0 0 12 12" fill="none" xmlns="http://www.w3.org/2000/svg">
<path fill-rule="evenodd" clip-rule="evenodd" d="M11.7907 9.61275L11.7075 9.70696L9.66563 11.7462L9.57206 11.8202L9.52752 11.8495L9.47199 11.8817L9.37345 11.9277L9.28557 11.9583L9.2047 11.9788L9.08533 11.9961L9.00002 11.9997L8.91509 11.9961L8.85106 11.9887L8.76863 11.9728L8.65475 11.9385L8.57684 11.906L8.46906 11.8474L8.42831 11.8203L8.37041 11.7743L8.29293 11.7068L6.2927 9.70696C5.90214 9.31645 5.90214 8.68331 6.2927 8.2928C6.65321 7.93233 7.22049 7.90461 7.61281 8.20962L7.70702 8.2928L7.99978 8.58531L8.00002 1.00031C8.00002 0.487469 8.38606 0.064798 8.8834 0.00703291L9.00018 0.000305176C9.55246 0.000305176 10.0002 0.44802 10.0002 1.00031L9.99978 8.58531L10.2932 8.2928C10.6537 7.93233 11.221 7.90461 11.6133 8.20962L11.7075 8.2928C12.038 8.62323 12.0888 9.12738 11.86 9.51126L11.7907 9.61275ZM2.37741 0.218305L2.42865 0.179294L2.50195 0.132654L2.62221 0.0738299L2.76897 0.0267751L2.8514 0.0108773L2.96741 0.000400099L3.08567 0.00347375L3.20504 0.0207905L3.31719 0.0510356L3.37379 0.0718762L3.47233 0.117879L3.5724 0.179331L3.62211 0.216467L3.70762 0.292751L5.70784 2.29261L5.79103 2.38681C6.07066 2.7464 6.07066 3.25298 5.79103 3.61256L5.70784 3.70676L5.61362 3.78995C5.25399 4.06954 4.74736 4.06954 4.38773 3.78995L4.29351 3.70676L4.00012 3.41426L4.00052 10.9993C4.00052 11.5121 3.61448 11.9348 3.11714 11.9925L3.00052 11.9993L2.88374 11.9925C2.42466 11.9392 2.06041 11.575 2.00709 11.1159L2.00036 10.9993L2.00012 3.41426L1.70736 3.70676L1.61315 3.78995C1.22083 4.09496 0.653551 4.06723 0.293038 3.70676C-0.067474 3.3463 -0.0952057 2.77909 0.209843 2.38681L0.293038 2.29261L2.29325 0.292751L2.37741 0.218305Z" fill="white"/>
</svg>
