<svg width="8" height="12" viewBox="0 0 8 12" fill="none" xmlns="http://www.w3.org/2000/svg">
<path fill-rule="evenodd" clip-rule="evenodd" d="M0.387101 7.2097L0.292893 7.29289C-0.0675907 7.65338 -0.0953203 8.22061 0.209705 8.6129L0.292893 8.70711L3.29289 11.7071L3.33685 11.7485L3.40469 11.8037L3.51594 11.8753L3.62866 11.9288L3.73401 11.9642L3.8819 11.9931L4 12L4.07524 11.9972L4.20073 11.9798L4.31214 11.9503L4.42322 11.9063L4.52071 11.854L4.62545 11.7803L4.70711 11.7071L7.70711 8.70711C8.09763 8.31658 8.09763 7.68342 7.70711 7.29289C7.34662 6.93241 6.77939 6.90468 6.3871 7.2097L6.29289 7.29289L5 8.585V1C5 0.447715 4.55228 0 4 0C3.44772 0 3 0.447715 3 1V8.585L1.70711 7.29289C1.34662 6.93241 0.779392 6.90468 0.387101 7.2097L0.292893 7.29289L0.387101 7.2097Z" fill="white"/>
</svg>
